# xmcd CD database file
#
# Track frame offsets:
#	150
#	19803
#	54094
#	82335
#	111548
#	139795
#	154695
#	191699
#
# Disc length: 3105 seconds
#
# Revision: 0
# Processed by: cddbd v1.5.2PL0 Copyright (c) Steve Scherf et al.
# Submitted via: CDex 1.70beta2
#
DISCID=6a0c1f08
DTITLE=Dans Dans - Dans Dans 3
DYEAR=2014
DGENRE=Jazz
TTITLE0=Zephyr
TTITLE1=Take a close look
TTITLE2=Fleurette Africaine
TTITLE3=Bloed en dromen
TTITLE4=Memento Mori
TTITLE5=Coffee grounds
TTITLE6=Miraggio
TTITLE7=Htes to vradi sto teke mas
EXTD=YEAR: 2014
EXTT0=
EXTT1=
EXTT2=
EXTT3=
EXTT4=
EXTT5=
EXTT6=
EXTT7=
PLAYORDER=
